<mxfile host="app.diagrams.net" agent="Mozilla/5.0 (Macintosh; Intel Mac OS X 10.15; rv:138.0) Gecko/20100101 Firefox/138.0" version="27.0.5">
  <diagram name="Страница — 1" id="4SKi2CmAtwcxGuWyLBbO">
    <mxGraphModel dx="1209" dy="616" grid="1" gridSize="10" guides="1" tooltips="1" connect="1" arrows="1" fold="1" page="1" pageScale="1" pageWidth="827" pageHeight="1169" math="0" shadow="0">
      <root>
        <mxCell id="0" />
        <mxCell id="1" parent="0" />
        <mxCell id="N9xmhG-XthNGNjEdl-Sc-1" value="AuthService" style="rounded=1;whiteSpace=wrap;html=1;" vertex="1" parent="1">
          <mxGeometry x="630" y="180" width="120" height="60" as="geometry" />
        </mxCell>
        <mxCell id="N9xmhG-XthNGNjEdl-Sc-2" value="Users" style="shape=cylinder3;whiteSpace=wrap;html=1;boundedLbl=1;backgroundOutline=1;size=15;" vertex="1" parent="1">
          <mxGeometry x="820" y="170" width="60" height="80" as="geometry" />
        </mxCell>
        <mxCell id="N9xmhG-XthNGNjEdl-Sc-3" value="" style="endArrow=classic;startArrow=classic;html=1;rounded=0;entryX=0;entryY=0.5;entryDx=0;entryDy=0;entryPerimeter=0;exitX=1;exitY=0.5;exitDx=0;exitDy=0;" edge="1" parent="1" source="N9xmhG-XthNGNjEdl-Sc-1" target="N9xmhG-XthNGNjEdl-Sc-2">
          <mxGeometry width="50" height="50" relative="1" as="geometry">
            <mxPoint x="666" y="450" as="sourcePoint" />
            <mxPoint x="716" y="400" as="targetPoint" />
          </mxGeometry>
        </mxCell>
      </root>
    </mxGraphModel>
  </diagram>
</mxfile>
